<svg version="1.1" id="Layer_1" xmlns="http://www.w3.org/2000/svg" xmlns:xlink="http://www.w3.org/1999/xlink" x="0px" y="0px" viewBox="0 0 562.4 132.1" style="enable-background:new 0 0 562.4 132.1;" xml:space="preserve">
  <style type="text/css">
     .st0{fill:#035846;}
     .st1{fill:#0C5945;}
  </style>
  <g id="a">
  </g>
  <g id="b">
     <g id="c">
         <g>
             <g>
                 <path class="st0" d="M103.5,73.5l-0.6-0.5l0.2-0.8c0-0.1,2-8.7-2.6-10.3l-0.8-0.3l-0.1-0.8c-0.2-1.8-1.2-6.7-4.3-7.5l-0.9-0.2
                     L94.3,52c0-0.5-0.5-4.4-4.7-4.1c-1.8,0.1-5.9,4.4-7.3,9.5L82,58.1l-0.7,0.2c-0.2,0.1-5.8,2.1-3.8,14.7l0.2,1.3l-1.3,0.2
                     c-0.1,0-2.6,0.6-4.3,3.3c-1.7,2.8-1.9,6.8-0.6,11.9c3.2,12.3,6.3,18.3,11,20.1c2.3,3.1,7.6,12.8,4.3,22.4h3.8
                     c-0.4-3.3-0.7-9.9,2.7-14.3c4.4-5.7,5.5-8.2,5.8-10.9c1.6-1,3.3-2.8,3.9-6.2l0.1-0.3l0.2-0.3C104.1,99.5,116.1,85,103.5,73.5
                     L103.5,73.5z M92.8,113.7c-2.9,3.3-3.6,4.7-3.6,4.7s-1.4-4.6-3.7-8.1c0.4,0,0.8,0,1.2,0h0.2l0.2,0.1c0.1,0,5.6,1.6,7.2-1.5
                     l0.4-0.7l0.6,0C95.2,109.5,94.6,111.7,92.8,113.7L92.8,113.7z"></path>
                 <path class="st0" d="M48.6,120.5c0.2-4.7,1.3-9.8,2.5-13.4c0.2-0.6,0.4-1.3,0.6-1.9c0.4-0.3,0.7-0.7,1.1-1.1
                     c6.5-7.5,4.7-24.3,4.5-26.2c-0.5-4.1,0.2-6.8,0.8-9.4c0.5-2.2,1-4.2,0.8-7.1c-0.2-2.9-0.8-4.3-1.6-5.8
                     c-1.2-2.5-2.5-5.1-1.4-13.9c1.4-11-1.4-13-2.7-14c-0.3-0.2-0.7-0.5-0.9-0.8l-0.4-0.5l0.2-0.6c0,0,1.1-5-1-8.1
                     c-1-1.4-2.5-2.2-4.7-2.4l0,0c-0.1,0-0.3,0-0.4,0c-2.4,0-6.1,2.1-7.3,6.4l-0.2,0.5L38,22.5c-0.1,0-7.8,4.3-8.7,13.6
                     c-0.9,9.5,1.6,14.4,1.6,14.5l0.3,0.6L31,51.7c0,0.1-4.5,10.5-4.1,16.6c0.2,3.7,0.9,6.4,1.5,8.9c0.4,1.8,0.8,3.4,1,5.3
                     c0,0.2,0,0.5,0.1,0.8c1.2,11.8,4.3,19.4,9.3,22.6c0.3,1.3,0.6,2.6,0.8,3.6c0.5,3,4.7,4.9,4.8,8c0.1,2.4-0.8,11.1-1.3,14.7h5.8
                     C48.7,129.6,48.5,124,48.6,120.5L48.6,120.5z M41.8,108c-0.1-0.3-0.1-0.6-0.2-0.8c1,0.3,2.2,0.5,3.3,0.5c0.1,0,0.2,0,0.3,0
                     c1.3,0,2.5-0.2,3.6-0.7c-1,2.1-2.5,5.2-2.5,7.2C46.3,114.2,42.9,112.6,41.8,108L41.8,108z"></path>
                 <path class="st0" d="M71.1,115.7c2.2-0.5,4.8-2,6.8-5.9c-4-3.7-6.6-10.5-8.9-19.5c-1.5-5.9-1.2-10.6,1-14c1.5-2.4,3.5-3.5,4.8-4
                     C73.2,60.7,78,57,79.9,56c1-3.1,3-6.3,5.3-8.5c-0.2-4.7-1.1-8.6-3.3-11.4c0,0,3.9-33.1-10.5-36c-2.1-0.4-3.8,1.1-4,3.1
                     c-0.5,4.3-4.1,2.3-5.5,6.7c-1.4,4.4,1.7,9.4-2.2,13c-1,1-2,2.5-3,4.5c1.5,2,2.9,6,1.8,14.5c-1,8,0,10.2,1.2,12.4
                     c0.8,1.6,1.7,3.3,1.8,6.8c0.2,3.3-0.4,5.6-0.9,7.9c-0.6,2.5-1.2,4.9-0.7,8.5c0.3,2.9,1.7,16.3-2.9,25.1
                     c2.5,9.8,6.4,12.2,9.3,12.9c1.5,6.9,0.1,13.6-0.8,16.6h5.2C70.6,128,70.9,119.7,71.1,115.7L71.1,115.7z"></path>
                 <path class="st0" d="M26.8,109.2c3.2-0.7,5.5-2.1,7.1-4.1c-1.4-1.7-2.6-3.7-3.6-6.1c-2.5-5.9-3.2-12.6-3.5-15.4
                     c0-0.3-0.1-0.6-0.1-0.8c-0.2-1.7-0.6-3.3-1-4.9c-0.6-2.5-1.3-5.4-1.5-9.4c-0.3-5.9,3.2-15,4.1-17.3c-0.7-1.7-2.5-6.8-1.6-15.4
                     c0.3-3.1,1.2-5.7,2.5-7.8c-1.2-1.1-3.1-2.2-6-2.4c-4-0.3-6.9,3.4-7.2,5.9c0,0-11.2,3.6-10.5,13.2s3.5,9.1-2,18.5
                     s-3,17.8-2.1,21.2c0.9,3.4,3.2,9,4.4,12.5c1.1,3.4,6.1,13.3,16.7,12.9c0.9,9.8,0.3,18.4-0.1,22.4h4.5
                     C25.9,117.3,26.4,111.2,26.8,109.2L26.8,109.2z"></path>
             </g>
             <g>
                 <path class="st1" d="M126.9,83.3c0-2.4-0.1-4.1-0.2-6.6c1.2-0.3,5.5-0.8,8.6-0.9c1.7-0.1,12.3,0,15.6,0
                     c-0.6,3.4-1.7,4.7-2.6,5.5c-0.9,0.4-2.2,0.4-5,0.4h-7.5V93h13.7c-0.8,5.4-2.3,5.8-4.9,5.8h-8.8c0,5.9,0.1,11.1,0.2,15.8
                     c-1.1,0.3-4.7,0.5-7.6,0.5c-1.1,0-1.5-0.2-1.5-1.2L126.9,83.3L126.9,83.3z"></path>
                 <path class="st1" d="M159.3,106.2c0,2.1,1.6,3.2,3.5,3.2c1.2,0,1.9-0.2,2.7-0.9c0.4-0.4,0.6-1.1,0.6-2.2v-4.2
                     C160.5,102.6,159.3,104.7,159.3,106.2L159.3,106.2L159.3,106.2z M177.5,109.5c0,3.7-1.8,6-5.9,6c-2.6,0-4.4-1.1-5.4-3.3
                     c-1.6,1.7-4.2,3.3-7,3.3c-4,0-8-3.1-8-8.1c0-6.2,6.9-8,11.8-9c1.1-0.2,2.5-0.4,3.2-0.6V97c0-2.4-1.7-4.2-4.7-4.2
                     c-2.1,0-4.2,1-5.5,1.6c-3.1,0.8-3.9-1.8-3.8-3.9c2.9-2,7.5-4.1,11.7-4.1c5.3,0,10.5,3.4,10.5,10.6c0,2.6-0.2,6.7-0.2,10.8
                     c0,0.6,0.8,1.4,2.2,1.4c0.3,0,0.8,0,1-0.1L177.5,109.5L177.5,109.5z"></path>
                 <path class="st1" d="M191,86.4c2.6,0,4.9,0.6,7.2,2.2c0.1,1.9-0.7,4.7-3.1,4.5c-1.2-0.6-2.7-0.9-4.2-0.9c-1.7,0-2.7,0.8-2.7,1.9
                     s0.9,1.7,2.1,2.4c1.1,0.6,3.7,1.8,4.9,2.4c3.2,1.8,4.5,4.2,4.5,7.1c0,6.3-5.5,9.4-11.6,9.4c-2.2,0-4.8-0.6-6.6-1.6
                     c-1-0.6-1.7-1.3-1.7-2.4c0-1.5,0.8-3.2,1.7-4c1.8,1.1,4.5,2.3,7.1,2.3c1.9,0,3.1-0.8,3.1-2.1c0-0.9-0.5-1.6-2.1-2.5
                     c-1.6-0.8-3.2-1.6-4.9-2.5c-2.4-1.4-4.3-3.9-4.3-7.2C180.4,89.7,185.3,86.4,191,86.4L191,86.4L191,86.4z"></path>
                 <path class="st1" d="M221.4,108.5c0.3,1.6,0.1,3.8-1.1,4.8c-1.6,1.4-4.3,2.1-7.4,2.1c-6.7,0-8.7-4.3-8.7-8.5V92.7
                     c-2.4,0-3.7-1.3-3.7-1.9c1.1-2,6.6-7,7.8-7.9c1.1-0.9,2.4-1.7,5.3-2c-0.2,1.8-0.4,4.4-0.4,6.3h8.9c-0.8,4.9-2.2,5-3.5,5.2
                     c-1.1,0.1-3.9,0.2-5.6,0.2c-0.2,4.5-0.2,10.3,0.1,12.8c0.3,2.7,1.9,3.9,4,3.9c1.9,0,3.6-0.7,4.2-1L221.4,108.5L221.4,108.5z"></path>
                 <path class="st1" d="M254.7,100.8c0-2.1-0.2-3.3-0.2-4.8c2.4-0.3,5.7-0.9,7.7-0.9c1.1,0,1.5,0.4,1.5,1.7v13.9
                     c-1.4,1.1-3.4,2.5-5.2,3.4c-2.3,0.7-5.5,1.3-8.6,1.3c-10.1,0-21.5-4.4-21.5-20.1c0-12.9,10-20.7,22.2-20.7
                     c6.7,0,11.4,2.1,13.1,3.7c0.1,2.8-1.9,4.8-4.2,4.4c-2.6-1.1-5.7-1.9-9-1.9c-7.1,0-12.7,4.4-12.7,13.9c0,10.2,6.7,15.1,13.5,15.1
                     c1.6,0,2.9-0.2,3.4-0.4L254.7,100.8L254.7,100.8z"></path>
                 <path class="st1" d="M268.7,89.8c0.6-1.7,3.2-3.7,5.2-3.7c3.1,0,4.2,2.8,4.3,6.5c1.8-4.2,4.4-6.5,7.8-6.5c1.1,0,2.4,0.6,3,1.1
                     c0.4,0.8,0.2,2.9-0.4,4.2c-0.3,1.6-1.7,3.3-2.7,3.4c-1.4-0.6-2.1-0.7-3.2-0.7c-0.9,0-2.5,0.5-3.4,2.9c-0.3,0.9-0.4,1.6-0.4,2.9
                     v12.6c0,1-0.1,1.6-1.6,1.7c-2.5,0.3-4.5,0.4-7.3,0.4c0.1-3.8,0.2-7.7,0.2-11.3V92.9c0-1.2-0.4-2.2-1.4-2.9L268.7,89.8
                     L268.7,89.8z"></path>
                 <path class="st1" d="M303.7,91.3c-3.6,0-4.9,4-4.9,8.7c0,6.9,2.6,10,5.7,10c3.9,0,4.9-4.1,4.9-9S307.9,91.3,303.7,91.3
                     L303.7,91.3L303.7,91.3z M304.5,86.2c9.1,0,13.9,6.5,13.9,14.1c0,9-5.8,14.9-14.6,14.9c-7.5,0-13.9-4.7-13.9-14.3
                     C289.9,92.2,296,86.2,304.5,86.2L304.5,86.2z"></path>
                 <path class="st1" d="M327.3,86.2c0.9,0,1.2,0.4,1.5,1.7c1.1,4.2,2.1,8.7,4.1,17.5c3-10.1,3.7-12.1,4.5-15.3
                     c-0.1-0.6-0.2-1.4-0.4-1.9c1.2-0.4,5-1.2,6.4-1.2c1.1,0,1.2,0.7,1.6,1.9c1.1,4.4,3.2,11.7,4.2,16.3c1.1-3.8,3.7-12.9,5.2-18.9
                     c2,0.1,4.2,0.2,5.9,0.8c0.9,0.3,1.1,1.2,0.4,3.2c-2.5,7.5-5.2,15-7.8,22.4c-0.4,1.2-0.7,1.7-2.1,2.1c-1.7,0.4-4,0.6-6,0.6
                     c-1.2-5.2-2.8-10.2-4.4-16.7c-1.3,4.4-2.4,7.7-4.4,13.9c-0.4,1.4-0.8,1.9-1.9,2.2c-1.7,0.4-4,0.6-5.7,0.6
                     c-1.7-5.7-3.5-11.8-5.9-19.1c-1.2-3.7-2-6-2.9-8.3c1.4-0.4,5.7-1.6,7.8-1.6L327.3,86.2L327.3,86.2z"></path>
                 <path class="st1" d="M369.1,73c2.6,0,4.2,1.9,4.2,4.5s-1.9,4.7-4.5,4.7c-2.1,0-4.4-1.2-4.4-4.5S367.3,73,369.1,73L369.1,73z
                      M373.2,112.9c0,1.1-0.5,1.4-2.1,1.6c-1.4,0.2-4,0.2-6.7,0.2c0.1-2.6,0.2-6.2,0.2-9.8V94.3c0-3.9-0.1-5.8-0.2-7
                     c1.6-0.4,6.2-0.8,7.6-0.8c1.1,0,1.3,0.3,1.3,3.9V112.9L373.2,112.9z"></path>
                 <path class="st1" d="M397.4,97.6c0-3.1-1.8-5-4.2-5c-2.1,0-3.2,0.7-4.5,1.6v18.6c0,1.1-0.1,1.4-1.5,1.6
                     c-2.4,0.4-4.6,0.4-7.3,0.4c0.1-3.8,0.2-7.7,0.2-11.2V93.4c0-1.7-0.2-2.5-1.2-3.1v-0.5c0.6-1.8,3-3.7,5.2-3.7
                     c2.6,0,3.7,1.9,4.1,3.9c2.7-2.1,5.5-3.9,8.5-3.9c8.3,0,9.4,7.1,9.4,11.5v7.3c0,3.1,0.1,6.8,0.2,9.3c-1.4,0.1-4.3,0.5-7.4,0.5
                     c-1,0-1.4-0.4-1.4-1.3L397.4,97.6L397.4,97.6z"></path>
                 <path class="st1" d="M422.6,90.6c-2.4,0-3.6,2.5-3.6,4.9c0,3.4,1.6,5.2,4,5.2c2.1,0,3.6-2,3.6-4.9
                     C426.6,93.4,425.8,90.6,422.6,90.6L422.6,90.6L422.6,90.6z M417.3,118.2c0,2.4,3.1,3.9,7,3.9c3.3,0,6.2-1.1,6.2-3.5
                     c0-1.4-0.9-2.7-4.2-3.1c-1.9-0.3-4.2-0.4-5.7-0.4c-0.7,0-1.5,0.1-2.1,0.5C417.8,116.1,417.3,116.9,417.3,118.2
                     C417.3,118.2,417.3,118.2,417.3,118.2z M423,86.2c1.4,0,3.6,0.3,5.3,0.7c1.4,0.3,3.5,0.8,4.5,0.8c2,0,4.2-0.4,5.1-0.8
                     c0.1,0.4,0.3,1.1,0.3,1.8c0,2.4-1,3.7-3.2,3.9c-0.4,0.1-1,0.1-1.7,0.1c0.4,1.1,0.6,2.2,0.6,3.1c0,6.2-5,9.3-11.3,9.3
                     c-0.9,0-1.7-0.1-2.1-0.2c-0.2,0.2-0.7,0.6-0.7,1.2c0,0.8,0.5,1.5,2.4,1.7c2.2,0.2,4.7,0.4,7.2,0.5c6.2,0.4,8.3,3.7,8.3,7.4
                     c0,7.6-7.6,11.8-15.6,11.8c-7.4,0-12.6-3.4-12.6-8.2c0-2.7,3-4.3,5.6-5.5c-1.6-0.7-3.7-2.6-3.8-5.5c0-0.2,0.1-0.6,0.6-0.9
                     c1.2-0.7,3.2-1.9,4.4-3.3c-2.7-0.9-5.7-3.2-5.7-8C410.9,90,416.1,86.2,423,86.2L423,86.2L423,86.2z"></path>
                 <path class="st1" d="M448.9,81.4h-10.8c-1.1,0-1.6-0.5-1.1-2.1c0.7-2.2,1.5-3.2,2.2-4c1.1,0.2,2.9,0.3,8.8,0.3h22.7
                     c-0.4,4-2.2,5.5-3.7,5.8h-9.2v25.3c0,4.3,0.1,6.3,0.2,7.6c-2,0.3-4.6,0.5-7.6,0.5c-1,0-1.5-0.2-1.5-1.1L448.9,81.4L448.9,81.4z"></path>
                 <path class="st1" d="M466.5,89.8c0.6-1.7,3.2-3.7,5.2-3.7c3.1,0,4.2,2.8,4.3,6.5c1.8-4.2,4.4-6.5,7.8-6.5c1.1,0,2.4,0.6,3,1.1
                     c0.4,0.8,0.2,2.9-0.4,4.2c-0.3,1.6-1.7,3.3-2.7,3.4c-1.4-0.6-2.1-0.7-3.2-0.7c-0.9,0-2.5,0.5-3.4,2.9c-0.3,0.9-0.4,1.6-0.4,2.9
                     v12.6c0,1-0.1,1.6-1.6,1.7c-2.5,0.3-4.5,0.4-7.3,0.4c0.1-3.8,0.2-7.7,0.2-11.3V92.9c0-1.2-0.4-2.2-1.4-2.9L466.5,89.8
                     L466.5,89.8z"></path>
                 <path class="st1" d="M500.5,91.1c-2,0-4.2,1.9-4.3,6.3c1.6,0.2,6,0.1,7.6,0c0.4,0,0.6-0.6,0.6-1.3
                     C504.5,93.4,503.4,91.1,500.5,91.1L500.5,91.1L500.5,91.1z M511.3,107.7c0.1,3.1-2.5,6-3.7,6.5c-0.9,0.4-3.6,1-5.6,1
                     c-9.3,0-14.4-4.8-14.4-14.3c0-7.3,5-14.8,13.5-14.8s11.3,5.9,11.3,11c0,0.9-0.1,1.6-0.2,2.1c-0.2,0.9-2.4,1.8-5.1,2.6
                     c-1.5,0.4-8.2,0.5-11,0.4c0.4,5.1,4.4,6.7,8,6.7c3,0,5.9-0.9,7-1.4L511.3,107.7L511.3,107.7z"></path>
                 <path class="st1" d="M528.1,91.1c-2,0-4.2,1.9-4.3,6.3c1.6,0.2,6,0.1,7.6,0c0.4,0,0.6-0.6,0.6-1.3C532,93.4,531,91.1,528.1,91.1
                     L528.1,91.1z M538.9,107.7c0.1,3.1-2.5,6-3.7,6.5c-0.9,0.4-3.6,1-5.6,1c-9.3,0-14.4-4.8-14.4-14.3c0-7.3,5-14.8,13.5-14.8
                     s11.3,5.9,11.3,11c0,0.9-0.1,1.6-0.2,2.1c-0.2,0.9-2.4,1.8-5.1,2.6c-1.5,0.4-8.2,0.5-11,0.4c0.4,5.1,4.4,6.7,8,6.7
                     c3,0,5.9-0.9,7-1.4L538.9,107.7L538.9,107.7z"></path>
                 <path class="st1" d="M553.7,86.2c2.5,0,4.9,0.6,7.2,2.2c0.1,1.9-0.7,4.7-3.1,4.5c-1.2-0.6-2.7-0.9-4.2-0.9
                     c-1.7,0-2.7,0.8-2.7,1.9s0.9,1.7,2.1,2.4c1.1,0.6,3.7,1.8,4.9,2.4c3.2,1.8,4.5,4.2,4.5,7.1c0,6.3-5.5,9.4-11.6,9.4
                     c-2.2,0-4.8-0.6-6.6-1.6c-1-0.6-1.7-1.3-1.7-2.4c0-1.5,0.8-3.2,1.7-4c1.8,1.1,4.5,2.3,7.1,2.3c1.9,0,3-0.8,3-2.1
                     c0-0.9-0.5-1.6-2.1-2.5c-1.5-0.8-3.2-1.6-4.8-2.5c-2.4-1.4-4.3-3.9-4.3-7.2C543.1,89.4,548.1,86.2,553.7,86.2L553.7,86.2
                     L553.7,86.2z"></path>
             </g>
         </g>
     </g>
  </g>
  </svg>